<?xml version="1.0" standalone="no"?>
<!DOCTYPE svg PUBLIC "-//W3C//DTD SVG 20010904//EN"
 "http://www.w3.org/TR/2001/REC-SVG-20010904/DTD/svg10.dtd">
<svg version="1.0" xmlns="http://www.w3.org/2000/svg"
 width="512.000000pt" height="512.000000pt" viewBox="0 0 512.000000 512.000000"
 preserveAspectRatio="xMidYMid meet">

<g transform="translate(0.000000,512.000000) scale(0.100000,-0.100000)"
fill="#000000" stroke="none">
<path d="M2335 4789 c-124 -13 -144 -18 -161 -44 -10 -16 -24 -105 -43 -275
-16 -138 -33 -255 -37 -260 -5 -4 -31 -15 -59 -23 -85 -25 -183 -65 -281 -114
l-93 -46 -194 156 c-107 86 -206 161 -219 167 -15 7 -32 8 -48 2 -68 -26 -318
-258 -438 -407 -74 -92 -88 -120 -73 -152 6 -12 81 -111 167 -218 l157 -196
-46 -93 c-49 -98 -89 -196 -114 -281 -8 -27 -19 -54 -23 -59 -5 -4 -122 -21
-260 -37 -268 -30 -294 -37 -304 -86 -12 -61 -26 -241 -26 -341 0 -140 19
-330 36 -364 16 -31 51 -43 160 -53 l72 -7 -54 -71 c-269 -357 -284 -834 -38
-1203 143 -216 357 -365 626 -437 l83 -22 1435 0 1435 0 89 24 c456 120 768
496 793 957 13 243 -61 482 -211 681 l-54 71 72 7 c109 10 144 22 160 53 31
61 45 374 26 578 -12 121 -23 160 -52 175 -11 6 -132 23 -270 39 -137 15 -253
32 -258 36 -4 5 -15 32 -23 59 -25 85 -65 183 -114 281 l-46 93 157 196 c86
107 161 206 167 218 15 32 1 60 -74 153 -121 150 -368 380 -436 405 -17 7 -33
7 -48 0 -12 -6 -111 -81 -218 -167 l-196 -157 -92 46 c-98 49 -250 110 -304
121 -18 4 -36 12 -39 18 -4 6 -19 122 -35 259 -15 136 -32 256 -38 267 -6 11
-23 24 -38 30 -71 28 -398 40 -578 21z m417 -117 c43 -4 82 -12 88 -18 6 -6
22 -123 37 -260 14 -141 31 -258 39 -270 7 -13 28 -24 50 -28 98 -19 302 -100
415 -167 37 -21 74 -39 83 -39 8 0 106 72 216 160 127 102 208 160 222 160 51
-1 387 -337 388 -388 0 -14 -58 -95 -160 -222 -88 -110 -160 -207 -160 -216 0
-8 20 -50 44 -92 52 -90 125 -268 151 -367 10 -38 24 -76 31 -84 10 -10 89
-23 271 -43 141 -15 261 -32 266 -37 33 -33 33 -529 0 -562 -4 -4 -73 -16
-151 -25 l-143 -16 -53 35 c-104 69 -212 115 -342 143 -61 13 -149 18 -384 23
l-305 6 -2 129 c-2 91 -8 153 -23 210 -68 268 -252 466 -520 557 -89 31 -104
33 -230 33 -147 0 -214 -13 -326 -64 -137 -62 -281 -191 -357 -320 -72 -123
-114 -305 -103 -441 3 -42 3 -84 0 -93 -5 -14 -36 -16 -268 -16 -143 0 -301
-5 -351 -10 -163 -19 -304 -68 -432 -152 l-63 -40 -142 16 c-78 9 -147 21
-151 25 -33 33 -33 529 -1 561 6 6 123 22 260 37 141 14 258 31 270 39 13 7
24 28 28 50 19 100 98 298 165 412 23 39 41 77 41 86 0 8 -72 106 -160 216
-102 127 -160 208 -160 222 1 51 337 387 388 388 14 0 95 -58 222 -160 110
-88 208 -160 216 -160 9 0 46 17 82 39 118 68 316 148 415 166 20 4 42 14 49
22 7 9 24 123 40 271 15 141 32 260 38 266 21 21 312 32 472 18z m-41 -1466
c262 -56 467 -248 539 -506 23 -83 29 -265 11 -313 l-11 -27 -674 0 -675 0
-13 23 c-18 34 -16 228 5 307 60 228 242 422 463 494 116 38 243 45 355 22z
m1329 -949 c198 -53 334 -131 461 -263 81 -85 118 -140 169 -246 65 -136 83
-220 84 -388 0 -150 -8 -201 -55 -330 -84 -230 -299 -445 -529 -529 -165 -60
-48 -56 -1610 -56 -1562 0 -1445 -4 -1610 56 -263 96 -487 346 -562 629 -18
70 -22 110 -22 230 1 169 19 252 84 389 143 299 417 490 750 525 19 2 652 2
1405 2 1268 -2 1375 -3 1435 -19z"/>
<path d="M2384 4593 l-40 -4 -23 -217 c-12 -119 -27 -234 -33 -256 -13 -54
-48 -81 -126 -101 -110 -27 -270 -92 -375 -150 -107 -60 -143 -67 -192 -36
-16 10 -106 80 -200 155 -93 75 -174 136 -179 136 -11 0 -296 -285 -296 -296
0 -5 61 -85 136 -179 75 -93 145 -183 155 -200 31 -49 24 -85 -36 -192 -58
-105 -123 -265 -150 -375 -20 -78 -47 -113 -101 -126 -22 -6 -136 -21 -255
-33 l-217 -23 -6 -59 c-8 -77 -8 -237 0 -314 l6 -60 105 -10 105 -11 43 29
c114 77 298 140 458 158 53 6 199 11 324 11 l228 0 1 103 c5 401 299 745 703
821 380 72 763 -125 932 -480 51 -108 80 -232 81 -350 l1 -94 214 0 c118 0
257 -5 310 -11 160 -18 345 -82 455 -157 l44 -31 106 11 106 11 6 60 c8 77 8
237 0 314 l-6 59 -217 23 c-119 12 -233 27 -255 33 -54 13 -81 48 -101 126
-27 110 -92 270 -150 375 -60 107 -67 143 -36 192 10 17 80 107 155 200 75 94
136 174 136 179 0 11 -285 296 -296 296 -5 0 -85 -61 -179 -136 -93 -75 -183
-145 -200 -155 -49 -31 -85 -24 -192 36 -116 64 -217 105 -349 143 -54 15
-106 36 -119 48 -32 30 -40 66 -66 315 l-23 217 -59 6 c-61 6 -259 6 -333 -1z"/>
<path d="M2440 3125 c-178 -40 -342 -169 -420 -328 -41 -86 -70 -202 -70 -282
0 -82 -61 -75 626 -75 l614 0 0 86 c0 329 -259 597 -590 610 -61 2 -118 -2
-160 -11z"/>
<path d="M1171 2189 c-340 -44 -613 -287 -707 -629 -25 -90 -25 -309 -1 -399
45 -166 102 -265 222 -387 137 -139 285 -215 473 -244 44 -7 533 -10 1447 -8
l1380 3 88 28 c159 49 267 117 379 236 159 167 239 391 224 621 -10 159 -51
279 -142 416 -111 169 -279 287 -489 346 l-80 23 -1365 1 c-751 1 -1394 -2
-1429 -7z m2767 -195 c203 -42 376 -175 467 -359 50 -101 69 -183 69 -300 0
-193 -58 -330 -199 -470 -144 -144 -278 -200 -480 -198 -90 0 -125 5 -190 26
-240 78 -410 269 -461 517 -44 218 25 439 187 601 161 161 386 229 607 183z"/>
<path d="M3664 1910 c-221 -58 -378 -216 -435 -438 -24 -96 -24 -179 1 -276
52 -204 206 -366 405 -428 99 -31 244 -31 340 1 103 34 172 76 250 155 117
119 171 253 168 426 -1 163 -62 299 -185 415 -147 140 -355 195 -544 145z
m254 -75 c150 -36 279 -138 345 -276 154 -319 -41 -678 -396 -731 -249 -38
-502 140 -562 394 -85 362 251 698 613 613z"/>
<path d="M3705 1756 c-82 -20 -146 -56 -206 -115 -250 -250 -112 -670 241
-733 276 -48 540 216 492 492 -45 253 -284 415 -527 356z"/>
<path d="M419 348 c-28 -30 -110 -200 -112 -234 -3 -46 17 -36 36 16 l18 50
52 0 c51 -1 52 -1 72 -43 20 -42 42 -52 38 -16 -2 10 2 19 7 19 29 0 -9 170
-47 212 -21 24 -38 23 -64 -4z m76 -92 c14 -47 20 -119 8 -86 -9 24 -25 30
-75 30 -27 0 -48 5 -48 10 0 14 27 67 53 104 19 27 21 28 34 10 7 -10 20 -41
28 -68z"/>
<path d="M1655 299 c-4 -6 -4 -36 1 -67 4 -31 6 -63 5 -71 -1 -8 2 -24 8 -35
6 -12 16 -43 24 -70 22 -80 40 -72 31 13 -5 50 -3 71 5 71 6 0 11 7 11 15 0 8
-7 15 -15 15 -8 0 -15 8 -15 19 0 10 -7 24 -15 31 -15 13 -21 60 -7 60 4 0 29
-7 56 -15 61 -18 76 -19 76 -2 0 8 -25 21 -60 30 -69 20 -96 21 -105 6z"/>
<path d="M1520 287 c0 -12 -19 -14 -112 -10 l-113 5 -33 -34 c-19 -21 -35 -49
-39 -71 -5 -32 -2 -38 19 -47 18 -9 34 -8 66 3 41 14 44 14 63 -6 10 -12 27
-45 36 -74 12 -38 22 -53 34 -53 17 0 17 3 4 41 -40 111 -77 143 -140 120 -17
-6 -37 -11 -43 -11 -21 0 -13 37 15 71 l27 32 96 -6 c52 -3 103 -9 112 -12 22
-9 38 -79 38 -164 0 -56 3 -71 15 -71 12 0 15 13 15 63 -1 34 -5 81 -9 105 -7
33 -5 42 5 42 21 0 17 28 -5 35 -11 3 -21 16 -23 27 -3 24 -28 37 -28 15z"/>
<path d="M717 283 c-15 -14 -5 -22 31 -25 l37 -3 3 -61 c4 -87 -10 -97 -114
-85 -79 8 -113 1 -78 -17 11 -5 52 -13 92 -16 71 -7 73 -7 102 23 29 29 30 33
29 110 l-1 81 -48 0 c-25 0 -50 -3 -53 -7z"/>
<path d="M1902 278 c-18 -18 -14 -52 11 -89 23 -34 24 -34 97 -34 73 0 74 0
97 -34 43 -63 35 -71 -67 -71 -49 0 -90 -4 -90 -9 0 -13 154 -23 184 -11 32
12 33 36 6 90 -28 55 -59 73 -107 64 -56 -11 -76 -7 -95 17 -34 41 -11 82 33
59 25 -14 44 -3 28 16 -14 17 -80 19 -97 2z"/>
<path d="M890 227 c0 -109 48 -195 115 -204 59 -7 80 19 79 101 0 61 -32 146
-54 146 -15 0 -12 -17 10 -60 27 -52 27 -131 1 -154 -47 -42 -115 46 -128 164
-7 74 -23 79 -23 7z"/>
<path d="M1752 33 c3 -14 13 -18 47 -18 29 0 46 5 49 14 4 11 -3 12 -32 7 -23
-4 -36 -3 -36 4 0 5 -7 10 -16 10 -9 0 -14 -7 -12 -17z"/>
</g>
</svg>
