<?xml version="1.0" standalone="no"?>
<!DOCTYPE svg PUBLIC "-//W3C//DTD SVG 20010904//EN"
 "http://www.w3.org/TR/2001/REC-SVG-20010904/DTD/svg10.dtd">
<svg version="1.0" xmlns="http://www.w3.org/2000/svg"
 width="512.000000pt" height="512.000000pt" viewBox="0 0 512.000000 512.000000"
 preserveAspectRatio="xMidYMid meet">

<g transform="translate(0.000000,512.000000) scale(0.100000,-0.100000)"
fill="#000000" stroke="none">
<path d="M1265 4706 c-286 -65 -513 -283 -597 -573 l-23 -78 0 -1495 0 -1495
23 -78 c70 -241 239 -435 464 -529 97 -41 186 -58 308 -58 114 0 196 16 297
56 77 31 2428 1439 2493 1493 177 148 280 372 280 608 0 233 -86 434 -249 585
-100 91 -2444 1497 -2571 1542 -76 26 -100 30 -225 32 -93 3 -160 -1 -200 -10z"/>
</g>
</svg>
