<?xml version="1.0" standalone="no"?>
<!DOCTYPE svg PUBLIC "-//W3C//DTD SVG 20010904//EN"
 "http://www.w3.org/TR/2001/REC-SVG-20010904/DTD/svg10.dtd">
<svg version="1.0" xmlns="http://www.w3.org/2000/svg"
 width="512.000000pt" height="512.000000pt" viewBox="0 0 512.000000 512.000000"
 preserveAspectRatio="xMidYMid meet">

<g transform="translate(0.000000,512.000000) scale(0.100000,-0.100000)"
fill="#000000" stroke="none">
<path d="M299 4671 c-146 -47 -256 -169 -288 -319 -16 -75 -16 -3509 0 -3584
32 -152 143 -273 291 -320 57 -17 147 -18 2258 -18 2180 0 2198 0 2264 20 141
44 253 169 285 318 8 38 11 486 11 1578 0 1703 4 1609 -69 1721 -21 32 -55 73
-76 92 -56 48 -154 92 -233 102 -37 4 -558 8 -1157 9 l-1090 0 -195 196 c-107
107 -207 202 -222 210 -23 12 -157 14 -875 13 -786 0 -852 -1 -904 -18z m3152
-1277 c231 -68 389 -278 389 -517 0 -232 -161 -444 -389 -511 -70 -20 -209
-21 -286 -1 -89 23 -152 62 -233 141 -87 86 -136 181 -154 298 -39 252 130
517 375 587 80 23 225 24 298 3z m-29 -1165 c336 -36 657 -186 768 -358 57
-90 73 -152 74 -291 1 -111 -1 -130 -21 -166 -28 -53 -91 -107 -142 -122 -28
-9 -251 -12 -802 -12 l-764 0 -50 24 c-54 25 -100 71 -122 123 -21 52 -17 247
7 325 25 82 83 172 146 226 109 93 379 204 575 236 168 28 199 29 331 15z"/>
</g>
</svg>
