<?xml version="1.0" standalone="no"?>
<!DOCTYPE svg PUBLIC "-//W3C//DTD SVG 20010904//EN"
 "http://www.w3.org/TR/2001/REC-SVG-20010904/DTD/svg10.dtd">
<svg version="1.0" xmlns="http://www.w3.org/2000/svg"
 width="512.000000pt" height="512.000000pt" viewBox="0 0 512.000000 512.000000"
 preserveAspectRatio="xMidYMid meet">

<g transform="translate(0.000000,512.000000) scale(0.100000,-0.100000)"
fill="#000000" stroke="none">
<path d="M2315 5109 c-800 -83 -1501 -518 -1927 -1196 -604 -961 -490 -2237
274 -3068 425 -462 951 -737 1583 -827 119 -17 512 -16 635 1 622 86 1148 360
1572 820 349 378 572 861 650 1406 17 118 17 512 0 630 -59 416 -191 769 -410
1099 -92 140 -185 254 -315 385 -399 404 -893 653 -1462 737 -123 18 -478 26
-600 13z m219 -979 c25 -15 64 -62 118 -144 190 -286 397 -504 674 -713 165
-125 259 -256 298 -416 22 -87 22 -255 1 -339 -76 -295 -351 -518 -645 -522
-61 -1 -82 3 -115 22 -125 72 -123 247 3 311 21 10 64 22 97 26 151 18 255 96
301 227 20 57 20 156 0 216 -23 70 -65 113 -254 268 -92 75 -217 187 -279 247
l-112 111 -4 -995 c-3 -1086 0 -1027 -62 -1150 -103 -207 -320 -332 -544 -316
-244 18 -446 180 -515 416 -25 87 -21 233 9 329 88 277 387 446 670 377 33 -8
63 -14 67 -15 4 0 9 438 10 973 2 777 6 978 16 1002 45 103 172 144 266 85z"/>
</g>
</svg>
