<?xml version="1.0" standalone="no"?>
<!DOCTYPE svg PUBLIC "-//W3C//DTD SVG 20010904//EN"
 "http://www.w3.org/TR/2001/REC-SVG-20010904/DTD/svg10.dtd">
<svg version="1.0" xmlns="http://www.w3.org/2000/svg"
 width="512.000000pt" height="512.000000pt" viewBox="0 0 512.000000 512.000000"
 preserveAspectRatio="xMidYMid meet">

<g transform="translate(0.000000,512.000000) scale(0.100000,-0.100000)"
fill="#000000" stroke="none">
<path d="M2380 4794 c-196 -18 -455 -78 -628 -145 -673 -264 -1188 -845 -1361
-1535 -53 -211 -65 -318 -65 -554 0 -236 12 -343 65 -554 195 -778 820 -1407
1599 -1610 221 -57 327 -70 570 -70 236 0 343 12 554 65 779 195 1407 819
1610 1599 57 221 70 327 70 570 0 243 -13 349 -70 570 -223 858 -945 1507
-1829 1645 -97 15 -425 27 -515 19z m268 -1141 c14 -10 35 -32 46 -47 21 -27
21 -33 21 -1046 0 -1013 0 -1019 -21 -1046 -39 -53 -71 -69 -134 -69 -63 0
-95 16 -134 69 -21 27 -21 35 -24 1019 -1 546 0 1006 3 1024 7 40 49 91 90
109 40 19 120 12 153 -13z m-480 -320 c14 -10 35 -32 46 -47 21 -27 21 -36 21
-726 0 -690 0 -699 -21 -726 -39 -53 -71 -69 -134 -69 -63 0 -95 16 -134 69
-21 27 -21 39 -24 699 -2 370 0 686 3 704 7 40 49 91 90 109 40 19 120 12 153
-13z m960 0 c14 -10 35 -32 46 -47 21 -27 21 -36 21 -726 0 -690 0 -699 -21
-726 -39 -53 -71 -69 -134 -69 -63 0 -95 16 -134 69 -21 27 -21 39 -24 699 -2
370 0 686 3 704 7 40 49 91 90 109 40 19 120 12 153 -13z m-1440 -320 c14 -10
35 -32 46 -47 20 -27 21 -39 21 -406 0 -367 -1 -379 -21 -406 -39 -53 -71 -69
-134 -69 -63 0 -95 16 -134 69 -20 26 -21 42 -24 379 -2 194 0 366 3 384 7 40
49 91 90 109 40 19 120 12 153 -13z m1920 0 c14 -10 35 -32 46 -47 20 -27 21
-39 21 -406 0 -367 -1 -379 -21 -406 -39 -53 -71 -69 -134 -69 -63 0 -95 16
-134 69 -20 26 -21 42 -24 379 -2 194 0 366 3 384 7 40 49 91 90 109 40 19
120 12 153 -13z"/>
</g>
</svg>
