<?xml version="1.0" standalone="no"?>
<!DOCTYPE svg PUBLIC "-//W3C//DTD SVG 20010904//EN"
 "http://www.w3.org/TR/2001/REC-SVG-20010904/DTD/svg10.dtd">
<svg version="1.0" xmlns="http://www.w3.org/2000/svg"
 width="512.000000pt" height="512.000000pt" viewBox="0 0 512.000000 512.000000"
 preserveAspectRatio="xMidYMid meet">

<g transform="translate(0.000000,512.000000) scale(0.100000,-0.100000)"
fill="#000000" stroke="none">
<path d="M2258 5106 c-20 -7 -54 -27 -75 -44 -81 -64 -751 -749 -782 -800 -93
-147 -98 -353 -14 -502 28 -50 791 -822 836 -846 115 -61 260 -15 313 100 23
50 24 55 24 362 l0 312 68 -5 c414 -26 764 -185 1034 -471 288 -306 429 -680
415 -1102 -12 -386 -154 -720 -421 -997 -158 -164 -303 -266 -504 -351 -469
-199 -1015 -146 -1443 140 -131 87 -325 282 -412 413 -160 243 -238 481 -256
783 -8 132 -12 149 -40 207 -55 111 -159 175 -284 175 -125 0 -234 -69 -288
-185 -26 -55 -29 -70 -29 -170 0 -638 331 -1291 855 -1685 922 -694 2222 -549
2957 329 551 659 665 1569 293 2336 -171 354 -439 658 -770 875 -112 73 -360
193 -485 234 -189 61 -364 94 -612 112 l-78 6 0 296 c0 186 -4 312 -11 337
-15 53 -91 129 -144 144 -52 14 -101 13 -147 -3z"/>
</g>
</svg>
