<?xml version="1.0" standalone="no"?>
<!DOCTYPE svg PUBLIC "-//W3C//DTD SVG 20010904//EN"
 "http://www.w3.org/TR/2001/REC-SVG-20010904/DTD/svg10.dtd">
<svg version="1.0" xmlns="http://www.w3.org/2000/svg"
 width="512.000000pt" height="512.000000pt" viewBox="0 0 512.000000 512.000000"
 preserveAspectRatio="xMidYMid meet">

<g transform="translate(0.000000,512.000000) scale(0.100000,-0.100000)"
fill="#000000" stroke="none">
<path d="M361 5109 c-172 -34 -318 -182 -351 -358 -6 -35 -10 -607 -10 -1652
l0 -1599 2560 0 2560 0 0 1599 c0 1045 -4 1617 -10 1652 -34 180 -179 325
-359 359 -67 12 -4325 12 -4390 -1z m759 -609 c62 -32 80 -77 80 -202 l0 -103
57 -30 c169 -88 267 -281 235 -465 -24 -138 -113 -261 -235 -325 l-57 -30 0
-708 c0 -690 -1 -709 -20 -747 -23 -45 -80 -80 -130 -80 -50 0 -107 35 -130
80 -19 38 -20 57 -20 747 l0 708 -57 30 c-122 64 -211 187 -235 325 -32 184
66 377 235 465 l57 30 0 103 c0 123 18 170 78 201 48 26 93 26 142 1z m1510 0
c26 -13 47 -34 60 -60 19 -38 20 -58 20 -592 l0 -553 57 -30 c169 -88 267
-281 235 -465 -24 -138 -113 -261 -235 -325 l-57 -30 0 -258 c0 -239 -1 -261
-20 -297 -23 -45 -80 -80 -130 -80 -50 0 -107 35 -130 80 -19 36 -20 58 -20
297 l0 258 -57 30 c-169 88 -267 281 -235 465 24 138 113 261 235 325 l57 30
0 553 c0 534 1 554 20 592 37 73 124 99 200 60z m1510 0 c62 -32 80 -77 80
-202 l0 -103 57 -30 c122 -64 211 -187 235 -325 32 -184 -66 -377 -235 -465
l-57 -30 0 -708 c0 -690 -1 -709 -20 -747 -23 -45 -80 -80 -130 -80 -50 0
-107 35 -130 80 -19 38 -20 57 -20 747 l0 708 -57 30 c-122 64 -211 187 -235
325 -32 184 66 377 235 465 l57 30 0 103 c0 123 18 170 78 201 48 26 93 26
142 1z"/>
<path d="M978 3899 c-43 -22 -78 -81 -78 -129 0 -76 74 -150 150 -150 76 0
150 74 150 150 0 50 -35 107 -80 130 -49 25 -94 25 -142 -1z"/>
<path d="M2488 2999 c-43 -22 -78 -81 -78 -129 0 -50 35 -107 80 -130 21 -11
53 -20 70 -20 76 0 150 74 150 150 0 50 -35 107 -80 130 -49 25 -94 25 -142
-1z"/>
<path d="M3998 3899 c-43 -22 -78 -81 -78 -129 0 -50 35 -107 80 -130 21 -11
53 -20 70 -20 50 0 107 35 130 80 11 21 20 53 20 70 0 50 -35 107 -80 130 -49
25 -94 25 -142 -1z"/>
<path d="M0 811 c0 -222 4 -411 10 -442 34 -180 179 -325 359 -359 74 -14
4308 -14 4382 0 180 34 325 179 359 359 6 31 10 220 10 442 l0 389 -2560 0
-2560 0 0 -389z m1120 69 c45 -23 80 -80 80 -130 0 -50 -35 -107 -80 -130 -35
-18 -59 -20 -220 -20 -210 0 -244 10 -280 80 -25 50 -25 90 0 140 36 70 66 79
278 80 164 0 187 -2 222 -20z m910 0 c45 -23 80 -80 80 -130 0 -50 -35 -107
-80 -130 -35 -18 -59 -20 -225 -20 -216 0 -249 9 -285 80 -25 50 -25 90 0 140
36 71 66 79 283 80 169 0 192 -2 227 -20z m900 0 c45 -23 80 -80 80 -130 0
-50 -35 -107 -80 -130 -35 -18 -59 -20 -220 -20 -210 0 -244 10 -280 80 -25
50 -25 90 0 140 36 70 66 79 278 80 164 0 187 -2 222 -20z m910 -1 c44 -25 80
-83 80 -129 0 -72 -77 -150 -149 -150 -77 0 -151 74 -151 150 0 48 35 107 78
129 48 26 95 26 142 0z m600 0 c44 -25 80 -83 80 -129 0 -72 -77 -150 -149
-150 -77 0 -151 74 -151 150 0 48 35 107 78 129 48 26 95 26 142 0z"/>
</g>
</svg>
