<?xml version="1.0" standalone="no"?>
<!DOCTYPE svg PUBLIC "-//W3C//DTD SVG 20010904//EN"
 "http://www.w3.org/TR/2001/REC-SVG-20010904/DTD/svg10.dtd">
<svg version="1.0" xmlns="http://www.w3.org/2000/svg"
 width="500.000000pt" height="500.000000pt" viewBox="0 0 500.000000 500.000000"
 preserveAspectRatio="xMidYMid meet">

<g transform="translate(0.000000,500.000000) scale(0.100000,-0.100000)"
fill="#ffffff" stroke="none">
<path d="M2680 3190 c139 -39 291 -136 389 -247 51 -59 130 -198 118 -209 -4 -4 -10 2 -13 12 -14 39 -94 142 -156 199 -116 109 -251 182 -391 212 -106 22 -288 13 -384 -21 -193 -66 -320 -167 -412 -325 -73 -124 -101 -226 -101 -367 0 -269 162 -520 415 -640 114 -54 183 -69 330 -68 136 1 205 13 314 57 115 47 256 159 326 262 21 30 40 55 42 55 2 0 -9 -24 -23 -52 -16 -33 -63 -89 -123 -149 -84 -83 -110 -103 -192 -142 -212 -102 -439 -112 -654 -28 -221 86 -407 293 -465 520 -27 105 -30 264 -6 363 68 285 305 515 596 579 111 25 281 20 390 -11z m119 -510 l-32 -60 -248 0 c-236 0 -250 -1 -269 -20 -20 -20 -26 -56 -12 -76 19 -29 56 -34 244 -34 188 0 196 -1 246 -26 68 -34 96 -79 97 -155 0 -49 -4 -62 -31 -96 -61 -75 -55 -74 -393 -71 l-301 3 29 55 29 55 248 3 c213 2 250 5 266 19 19 17 23 49 10 70 -17 26 -69 33 -257 33 -206 0 -232 5 -278 48 -41 39 -57 74 -57 127 0 80 53 152 128 175 15 5 159 9 320 9 l293 1 -32 -60z"/>
</g>
</svg>